inDegrees=yes
name=ik_lifting_orientations
DataType=double
version=3
OpenSimVersion=4.5-2024-01-10-34fd6af
endheader
time	pelvis_tilt	pelvis_list	pelvis_rotation	pelvis_tx	pelvis_ty	pelvis_tz	hip_flexion_r	hip_adduction_r	hip_rotation_r	knee_angle_r	knee_angle_r_beta	ankle_angle_r	subtalar_angle_r	mtp_angle_r	hip_flexion_l	hip_adduction_l	hip_rotation_l	knee_angle_l	knee_angle_l_beta	ankle_angle_l	subtalar_angle_l	mtp_angle_l	lumbar_extension	lumbar_bending	lumbar_rotation	arm_flex_r	arm_add_r	arm_rot_r	elbow_flex_r	pro_sup_r	wrist_flex_r	wrist_dev_r	arm_flex_l	arm_add_l	arm_rot_l	elbow_flex_l	pro_sup_l	wrist_flex_l	wrist_dev_l
0.02	0.01706879807449528	-0.006664353698298858	-19.52967078889694	0	0.9399999998497812	0	40.60326505500225	-10.77602302761586	0	58.9745101248717	1.029299376429743	-5.27672469210381	0	0	40.60326505500225	-10.77602302761586	0	58.9745101248717	1.029299376429743	-5.27672469210381	0	0	-0.008350851604112204	0.0007844913851647212	0.0003387130040095849	-0.2593063495925259	-0.05543880615547214	-0.006365626575550107	0.4960704689606025	46.06621926021634	0	0	0	-9.007286437101609	0	78.10444538966662	46.06621926021634	0	0
0.03	0.0005023445361109541	-0.0006186472199776223	-19.53048442584281	0	0.9399999998497812	0	40.82220362052098	-10.67007980799041	0	59.01526582870427	1.030010697650589	-5.231816345503558	0	0	40.82220362052098	-10.67007980799041	0	59.01526582870427	1.030010697650589	-5.231816345503558	0	0	-0.002099454145095026	0.001607072850650829	-0.000572044204556652	-0.235637376068318	-0.05674695493718613	-0.006144585435882157	0.4895436767205225	45.94307764528824	0	0	0	-9.167861333402872	0	77.95005165476644	45.94307764528824	0	0
0.04	5.013638591225213e-05	-5.286273911749659e-05	-19.53111297976352	0	0.9399999998497812	0	41.06725346557037	-10.56219107421769	0	59.0613825853862	1.03081558689503	-5.187366477880579	0	0	41.06725346557037	-10.56219107421769	0	59.0613825853862	1.03081558689503	-5.187366477880579	0	0	-0.0008960518717302125	0.001192698975704695	-0.0002432203995929929	-0.2356608203038135	-0.05681673435714611	-0.005100241951606962	0.488009823650055	45.81473176819451	0	0	0	-9.352052597810413	0	77.77721404512633	45.81473176819451	0	0
0.05	-0.006206754221729299	-0.001583407252606713	-19.52774453854707	0	0.9399999998497812	0	41.06828316298815	-10.56168169201012	0	59.06157606357723	1.030818963726494	-5.187145391750283	0	0	41.06828316298815	-10.56168169201012	0	59.06157606357723	1.030818963726494	-5.187145391750283	0	0	0.5295505390482075	0.26842658399868	-0.1353853528113402	-0.762016817828095	-0.3250391454232879	0.1279542581734568	0.4895768589278331	45.8141469921888	0	0	0	-9.352812655479173	0	77.77648792827527	45.8141469921888	0	0
0.06	-0.0007544150898256374	-0.0003662844451125247	-19.53032729422932	0	0.9399999998497812	0	41.0693429337567	-10.56115740000675	0	59.06177509634266	1.030822437503571	-5.186917863631797	0	0	41.0693429337567	-10.56115740000675	0	59.06177509634266	1.030822437503571	-5.186917863631797	0	0	1.060501010972092	0.5363227828766987	-0.275575553557199	-1.294129270079798	-0.5977260036134502	0.2580897411607446	0.4880613368478603	45.81354506433815	0	0	0	-9.35359471021909	0	77.77574060483697	45.81354506433815	0	0
0.07000000000000001	0.005116620900803638	3.129786020802006e-05	-19.5371359138729	0	0.9399999998497812	0	41.26316230013799	-10.48540894317402	0	59.09872282097228	1.031467296949478	-5.156943828548989	0	0	41.26316230013799	-10.48540894317402	0	59.09872282097228	1.031467296949478	-5.156943828548989	0	0	1.055022228281436	0.5373413652403327	-0.2752338978035984	-1.349788008822204	-0.6111164830935818	0.2579124867073261	0.5986558112518346	45.72059892788098	0	0	0	-9.503514421566511	0	77.63900908807837	45.72059892788098	0	0
0.08	0.01231211493241017	0.007998593451121586	-19.54139841597026	0	0.9399999998497812	0	41.41010505650051	-10.42616615003445	0	59.12668114410656	1.031955261741507	-5.133111034428105	0	0	41.41010505650051	-10.42616615003445	0	59.12668114410656	1.031955261741507	-5.133111034428105	0	0	1.055961632347036	0.5296418481602214	-0.2713939179884368	-1.345039640956932	-0.6175100103958896	0.2634976191533984	0.5907477292079015	45.64866113930483	0	0	0	-9.616682117594076	0	77.53535304062115	45.64866113930483	0	0
0.09	-0.007823222837416575	0.003038000438188	-19.53644836361563	0	0.9399999998497812	0	41.49870504380662	-10.39403102578721	0	59.14371692477945	1.032252592204897	-5.120684313303644	0	0	41.49870504380662	-10.39403102578721	0	59.14371692477945	1.032252592204897	-5.120684313303644	0	0	1.072749000430365	0.5354043081508292	-0.2710710637857061	-1.349057966181389	-0.6063436380260923	0.2557545129467811	0.5958751373640385	45.60849347403562	0	0	0	-9.686538067502905	0	77.47284337485203	45.60849347403562	0	0
0.1	-0.01954155663273311	0.0006093243050423743	-19.53594203549265	0	0.9399999998497812	0	41.62872751539976	-10.34852483123447	0	59.16880612677904	1.032690481386488	-5.103331788278158	0	0	41.62872751539976	-10.34852483123447	0	59.16880612677904	1.032690481386488	-5.103331788278158	0	0	1.088767000596778	0.5448902650967037	-0.2801597686952195	-1.512841658098189	-0.652443932686651	0.2577145792410769	0.9289808949358026	45.55103877703552	0	0	0	-9.78981670600179	0	77.38110538818471	45.55103877703552	0	0
0.11	0.005378842384954022	0.003701558158797898	-19.5213326389177	0	0.9399999998497812	0	41.69518014894098	-10.32672211786037	0	59.18171914596172	1.032915856087599	-5.095220502143791	0	0	41.69518014894098	-10.32672211786037	0	59.18171914596172	1.032915856087599	-5.095220502143791	0	0	1.059710402248199	0.5350922736732049	-0.2792295118949698	-1.295836861044461	-0.5986789936720976	0.2491216896734727	0.481159182507999	45.52301501829878	0	0	0	-9.843355828197931	0	77.33421568245328	45.52301501829878	0	0
0.12	0.002626733250623321	0.001249410376351402	-19.53183688205047	0	0.9399999998497812	0	41.69607555343903	-10.32641414443727	0	59.18189318589184	1.032918893657409	-5.095103490439691	0	0	41.69607555343903	-10.32641414443727	0	59.18189318589184	1.032918893657409	-5.095103490439691	0	0	0.0008448753630188316	-0.003818636102707912	0.004125353292021718	-0.2393298869485247	-0.05135262408580147	-0.009596999095408162	0.4897283191828145	45.52262483344738	0	0	0	-9.844072285263771	0	77.33358391050365	45.52262483344738	0	0
0.13	-0.004918156838901819	-0.0003858501467804401	-19.5287207082707	0	0.9399999998497812	0	41.69693700215998	-10.32611902948289	0	59.18206106131692	1.03292182363631	-5.094991472755658	0	0	41.69693700215998	-10.32611902948289	0	59.18206106131692	1.03292182363631	-5.094991472755658	0	0	1.059249784930779	0.5369219350142899	-0.2752820427454256	-1.289707175451003	-0.5960464003992078	0.2584916152878779	0.4828529330303793	45.52225063823056	0	0	0	-9.844762916150927	0	77.33297609310044	45.52225063823056	0	0
0.14	0.02709825152219652	-0.004309829715959149	-19.53088128919174	0	0.9399999998497812	0	41.79376138268743	-10.29746976751316	0	59.2010560827562	1.033253349301912	-5.08472280897394	0	0	41.79376138268743	-10.29746976751316	0	59.2010560827562	1.033253349301912	-5.08472280897394	0	0	1.000179762399543	0.5213667352324769	-0.2793368787164496	-1.314431162853992	-0.5988594935123738	0.2598885242069246	0.609817538066783	45.48438951826907	0	0	0	-9.924616082357762	0	77.26464670274464	45.48438951826907	0	0
0.15	0.0227032339705304	-0.006723447166795615	-19.5385111031928	0	0.9399999998497812	0	41.81121300726969	-10.29232350919759	0	59.20449411640792	1.033313354308929	-5.082870119324108	0	0	41.81121300726969	-10.29232350919759	0	59.20449411640792	1.033313354308929	-5.082870119324108	0	0	1.051938084825396	0.5359801331667942	-0.2704430266918137	-1.534762568003418	-0.6536592559893727	0.2523745073911016	0.9316475205617952	45.47760073018252	0	0	0	-9.939125055040821	0	77.2523307890846	45.47760073018252	0	0
0.16	-0.0005478760140108053	0.0003461850567829223	-19.52894957738994	0	0.9399999998497812	0	41.89736412537208	-10.2683145116324	0	59.22152794454758	1.033610650694185	-5.074463146220052	0	0	41.89736412537208	-10.2683145116324	0	59.22152794454758	1.033610650694185	-5.074463146220052	0	0	1.06270059500711	0.5375418040211853	-0.2759765911969205	-1.300162338012321	-0.6006661990657615	0.2565266333125355	0.4967148794504025	45.44533664820058	0	0	0	-10.01110301772382	0	77.19153007149534	45.44533664820058	0	0
0.17	0.0008109937419905002	-0.0002495279381062743	-19.53174466436448	0	0.9399999998497812	0	42.04172472626795	-10.23423448499334	0	59.25048079863406	1.034115973325844	-5.063249958968619	0	0	42.04172472626795	-10.23423448499334	0	59.25048079863406	1.034115973325844	-5.063249958968619	0	0	1.060038214823388	0.5371687679512256	-0.2755501023245861	-1.29478861226513	-0.5988428651633784	0.2586752669279745	0.4884620622053567	45.39740541055271	0	0	0	-10.13617100736711	0	77.08963045703143	45.39740541055271	0	0
0.18	-0.004200244427590327	-0.00155405570020719	-19.52625213543482	0	0.9399999998497812	0	42.25479296472369	-10.18693610502991	0	59.29354296843226	1.034867549971875	-5.047925224120267	0	0	42.25479296472369	-10.18693610502991	0	59.29354296843226	1.034867549971875	-5.047925224120267	0	0	1.069598117808	0.5404924021398015	-0.2757096141888216	-1.352794737297512	-0.6063831589693702	0.2527486112499253	0.5898540772507752	45.32995311557989	0	0	0	-10.32402209754711	0	76.9392237030121	45.32995311557989	0	0
0.19	0.00685337021493741	0.0006944046324256988	-19.53829082605497	0	0.9399999998497812	0	42.3621381276741	-10.16422570438777	0	59.31535895148504	1.035248310705705	-5.040680348152155	0	0	42.3621381276741	-10.16422570438777	0	59.31535895148504	1.035248310705705	-5.040680348152155	0	0	1.054826080272104	0.5352907552716651	-0.2698142356785929	-1.343940810447197	-0.6057816840818485	0.2653796183959087	0.5942491674913526	45.29716719117996	0	0	0	-10.41977839452071	0	76.86344516283827	45.29716719117996	0	0
0.2	0.01647851896494045	0.0005705863441024019	-19.53187166838454	0	0.9399999998497812	0	42.3623956021146	-10.16416973727528	0	59.31541132979352	1.035249224879645	-5.040662262926848	0	0	42.3623956021146	-10.16416973727528	0	59.31541132979352	1.035249224879645	-5.040662262926848	0	0	1.05455511307494	0.5277221156350125	-0.2710926771807448	-1.431476857899824	-0.6654328573321359	0.2709001155070505	0.3274753524884259	45.29708708553535	0	0	0	-10.42000732689236	0	76.86326340687555	45.29708708553535	0	0
0.21	0.009517447317297366	0.001623416113061227	-19.5322801271746	0	0.9399999998497812	0	42.362708349658	-10.16410175419269	0	59.31547494603134	1.035250335192453	-5.040640295451611	0	0	42.362708349658	-10.16410175419269	0	59.31547494603134	1.035250335192453	-5.040640295451611	0	0	1.050512406463493	0.5261913387518625	-0.2722487832929644	-1.563709919176138	-0.7365067811138243	0.2848054869077793	0.227890240278185	45.29698978044878	0	0	0	-10.42028539388348	0	76.86304263260931	45.29698978044878	0	0
0.22	-0.001683803809906293	0.001572762352965528	-19.53245703963681	0	0.9399999998497812	0	42.36348964698757	-10.16393201706355	0	59.31563387951504	1.035253109105035	-5.040585461178909	0	0	42.36348964698757	-10.16393201706355	0	59.31563387951504	1.035253109105035	-5.040585461178909	0	0	0.003431031816061541	-0.0003014463291879467	0.001257042361531377	-0.5026718003207313	-0.1985046653646266	0.02737369296903226	0.2198994248069168	45.29674679334545	0	0	0	-10.42098013286323	0	76.86249110016288	45.29674679334545	0	0
0.23	-0.004173157832188188	0.0003950175130468701	-19.53111065515398	0	0.9399999998497812	0	42.36394951347837	-10.16383178685239	0	59.31572713598661	1.035254736737513	-5.040553066238256	0	0	42.36394951347837	-10.16383178685239	0	59.31572713598661	1.035254736737513	-5.040553066238256	0	0	0.007886412785235606	0.002101632105996542	0.0002500485438311947	-0.50927700005579	-0.1989573013064138	0.025730899918776	0.2239945414463555	45.29660337939399	0	0	0	-10.4213881786715	0	76.86216647296699	45.29660337939399	0	0
0.24	-0.001003157066379095	-0.0003397498098035466	-19.53106757504849	0	0.9399999998497812	0	42.36430926792072	-10.16375342915643	0	59.31580010321707	1.03525601025593	-5.040527746888754	0	0	42.36430926792072	-10.16375342915643	0	59.31580010321707	1.03525601025593	-5.040527746888754	0	0	0.01050432264548875	0.002504237872777139	0.000209530090280003	-0.5208859741447995	-0.2020763839662138	0.02547346286679019	0.2252114566064413	45.2964912415986	0	0	0	-10.42170745078636	0	76.86191251635756	45.2964912415986	0	0
